<?xml version="1.0" encoding="UTF-8"?>
<svg width="966px" height="710px" viewBox="0 0 966 710" version="1.1" xmlns="http://www.w3.org/2000/svg" xmlns:xlink="http://www.w3.org/1999/xlink">
    <!-- Generator: Sketch 54.1 (76490) - https://sketchapp.com -->
    <title>SVG Layer</title>
    <desc>Created with Sketch.</desc>
    <defs>
        <filter x="-1.3%" y="-1.7%" width="102.5%" height="103.4%" filterUnits="objectBoundingBox" id="filter-1">
            <feOffset dx="0" dy="2" in="SourceAlpha" result="shadowOffsetOuter1"></feOffset>
            <feGaussianBlur stdDeviation="2" in="shadowOffsetOuter1" result="shadowBlurOuter1"></feGaussianBlur>
            <feColorMatrix values="0 0 0 0 0   0 0 0 0 0   0 0 0 0 0  0 0 0 0.5 0" type="matrix" in="shadowBlurOuter1" result="shadowMatrixOuter1"></feColorMatrix>
            <feMerge>
                <feMergeNode in="shadowMatrixOuter1"></feMergeNode>
                <feMergeNode in="SourceGraphic"></feMergeNode>
            </feMerge>
        </filter>
    </defs>
    <g id="Page-1" stroke="none" stroke-width="1" fill="none" fill-rule="evenodd">
        <g id="SVG-Layer" filter="url(#filter-1)" transform="translate(4.000000, 2.000000)" fill="#000000" fill-rule="nonzero">
            <g id="Hue-Ambiance-Downlight-LTD001">
                <g id="Shape">
                    <path d="M761.657879,157.928304 C880.548956,212.387549 958,300.550539 958,401.12801 C958,568.819087 742.699141,702 479,702 C215.300859,702 0,568.819087 0,401.12801 C0,300.2855 77.8597762,211.922985 197.282881,157.498478 L194.742898,156.101862 C225.872555,99.535535 252.957098,71.6709506 311.934888,38.4260344 C357.42709,12.7827466 413.056119,0 478.741992,0 C544.427865,0 600.056895,12.7827466 645.549097,38.4260344 C704.82344,71.8381134 731.860352,99.7718027 763.261744,157.049772 L761.657883,157.928306 L761.657879,157.928304 Z M232.427564,118.961817 C252.970249,98.6081477 277.121833,83.4182361 313.757609,66.4535753 C358.65939,45.6612356 413.634994,35.2836637 478.670906,35.2836637 C543.706817,35.2836637 598.682422,45.6612356 643.584202,66.4535753 C680.558255,83.5748797 704.836954,98.9230789 725.470467,119.51375 C704.038456,90.9697982 679.576566,71.377524 639.654649,48.8741241 C596.083852,24.313904 542.472962,11.9948966 478.741992,11.9948966 C415.011023,11.9948966 361.400132,24.313904 317.829335,48.8741241 C278.15702,71.2368275 253.743547,90.7441468 232.427564,118.961805 L232.427564,118.961817 Z M525.728028,101.662207 L517.050154,54.8216188 C516.748459,53.1931567 517.824577,51.6285589 519.453732,51.3269918 C521.082887,51.0254248 522.648151,52.1010857 522.949846,53.7295479 L531.903924,102.061008 C569.368516,104.633185 605.557957,109.90664 639.951391,117.573449 C637.994326,106.409678 634.763699,95.7908586 627.186655,75.3070343 C626.612059,73.7536666 627.406045,72.0288089 628.960074,71.4544567 C630.514103,70.8801045 632.239694,71.6737534 632.814291,73.227121 C641.056181,95.5082952 644.288538,106.495273 646.274702,119.014646 C680.818985,127.061634 713.495037,137.535257 743.764728,150.117379 C717.706976,115.074159 691.611197,95.3028322 641.062131,71.8954453 C597.013761,51.4982884 542.887858,41.281112 478.670906,41.281112 C414.453953,41.281112 360.32805,51.4982884 316.27968,71.8954453 C265.602493,95.3621604 239.538378,115.108599 213.290818,150.510968 C243.825055,137.753502 276.821751,127.145296 311.725789,119.014532 C313.711954,106.495206 316.944317,95.5082274 325.186182,73.227121 C325.760779,71.6737534 327.486371,70.8801045 329.040399,71.4544567 C330.594428,72.0288089 331.388414,73.7536666 330.813818,75.3070343 C323.236799,95.7907915 320.006169,106.409608 318.049101,117.573339 C352.752205,109.837527 389.283799,104.53836 427.108832,101.992155 L436.050154,53.7295479 C436.351849,52.1010857 437.917113,51.0254248 439.546268,51.3269918 C441.175423,51.6285589 442.251541,53.1931567 441.949846,54.8216188 L433.283182,101.601703 C448.334496,100.711152 463.58455,100.25602 479,100.25602 C494.760776,100.25602 510.348664,100.731771 525.728028,101.662207 L525.728028,101.662207 Z M479,231.200308 C649.996149,231.200308 789,316.739575 789,423.118654 C789,529.497733 649.996149,615.037 479,615.037 C308.003851,615.037 169,529.497733 169,423.118654 C169,318.16579 304.301611,233.497689 472.139917,231.246278 C474.420435,231.215694 476.707296,231.200308 479,231.200308 Z M176.155842,439.40082 C189.663914,534.140861 319.906032,609.039551 479,609.039551 C638.093968,609.039551 768.336086,534.140861 781.844157,439.40082 C763.815096,531.882065 634.921773,603.042103 479,603.042103 C323.078227,603.042103 194.184904,531.882065 176.155842,439.40082 L176.155842,439.40082 Z M479,237.197757 C313.652496,237.197757 180,318.151416 180,417.121206 C180,516.090995 313.652496,597.044655 479,597.044655 C644.347504,597.044655 778,516.090995 778,417.121206 C778,319.338282 647.533859,239.141974 484.934794,237.232575 C482.961026,237.20939 480.982754,237.197757 479,237.197757 Z M942.805602,435.095859 C944.915239,423.95466 946,412.619697 946,401.12801 C946,241.585597 736.916978,112.250917 479,112.250917 C221.083022,112.250917 12,241.585597 12,401.12801 C12,412.619697 13.0847608,423.95466 15.1943975,435.095859 C13.7428174,425.89521 13,416.56489 13,407.125458 C13,248.847491 221.848488,121.247089 479,121.247089 C736.151512,121.247089 945,248.847491 945,407.125458 C945,416.56489 944.257183,425.89521 942.805602,435.095859 L942.805602,435.095859 Z M479,687.006379 C733.264166,687.006379 939,561.307719 939,407.125458 C939,252.943198 733.264166,127.244538 479,127.244538 C224.735834,127.244538 19,252.943198 19,407.125458 C19,561.307719 224.735834,687.006379 479,687.006379 Z M479,647.023391 C278.736221,647.023391 116,549.423183 116,428.116528 C116,306.809872 278.736221,209.209664 479,209.209664 C679.263779,209.209664 842,306.809872 842,428.116528 C842,549.423183 679.263779,647.023391 479,647.023391 Z M479,641.025942 C676.381241,641.025942 836,545.295417 836,428.116528 C836,310.937638 676.381241,215.207113 479,215.207113 C281.618759,215.207113 122,310.937638 122,428.116528 C122,545.295417 281.618759,641.025942 479,641.025942 Z"></path>
                </g>
            </g>
        </g>
    </g>
</svg>